<svg xmlns="http://www.w3.org/2000/svg" width="1280" height="1280" viewBox="0 0 1280 1280" version="1.1">
	<path d="M 549 61.085 C 518.213 63.491, 491.421 75.809, 468.999 97.865 C 446.004 120.486, 433.687 147.015, 431.099 179.500 C 430.089 192.170, 430.711 197.706, 433.878 204.247 C 438.650 214.105, 447.991 219.379, 460.591 219.330 C 467.557 219.302, 469.409 218.902, 473.910 216.453 C 484.677 210.592, 488.367 203.943, 489.991 187.476 C 492.855 158.422, 505.431 139.171, 529.382 127.176 C 537.720 123, 540.947 122.100, 552.216 120.805 C 565.050 119.329, 578.133 121.216, 588.500 126.038 C 600.867 131.790, 609.556 138.756, 616.516 148.500 C 624.819 160.123, 628.344 170.207, 630.101 187.365 C 631.848 204.435, 636.467 212.187, 647.949 217.325 C 654.425 220.223, 666.867 220.131, 672.722 217.143 C 678.935 213.972, 683.241 209.809, 686.507 203.819 C 689.301 198.693, 689.401 198.041, 689.269 185.873 C 688.989 160.123, 681.820 138.211, 666.245 115.500 C 660.181 106.658, 645.525 91.566, 637 85.387 C 611.119 66.628, 581.774 58.524, 549 61.085 M 329 261.011 C 319.431 261.723, 314.442 262.601, 303.590 265.487 C 297.762 267.036, 296.360 267.575, 284.500 272.824 C 267.887 280.177, 249.429 295.062, 236.426 311.592 C 233.433 315.397, 224 330.476, 224 331.456 C 224 331.725, 222.923 334.320, 221.608 337.223 C 216.172 349.214, 212.927 361.118, 211.061 375.909 C 210.330 381.700, 210.010 495.325, 210.032 740.909 C 210.065 1118.757, 209.897 1104.160, 214.420 1122.632 C 216.383 1130.647, 218.608 1136.513, 224.802 1150 C 229.803 1160.889, 241.396 1175.880, 252.643 1186 C 272.024 1203.439, 291.178 1212.784, 318.500 1218.130 C 328.937 1220.173, 951.063 1220.173, 961.500 1218.130 C 970.820 1216.307, 977.540 1214.558, 983 1212.535 C 985.475 1211.618, 988.375 1210.597, 989.445 1210.266 C 991.492 1209.633, 1000.731 1204.933, 1007.500 1201.081 C 1012.377 1198.306, 1024.228 1189.324, 1029 1184.787 C 1047.363 1167.328, 1059.432 1146.763, 1065.848 1122 C 1070.128 1105.481, 1070.153 1104.008, 1069.819 888.500 L 1069.500 682.500 1066.633 676.751 C 1061.237 665.930, 1052.717 660.897, 1039.500 660.722 C 1033.067 660.637, 1030.579 661.063, 1026.796 662.897 C 1021.016 665.699, 1014.555 672.539, 1011.951 678.613 C 1010.037 683.079, 1010 687.098, 1009.999 889.333 C 1009.998 1111.474, 1010.224 1101.309, 1004.987 1115.306 C 997.517 1135.271, 980.357 1150.634, 957.510 1157.811 C 953.020 1159.222, 926.592 1159.420, 703.075 1159.717 C 546.374 1159.926, 453.296 1159.696, 452.699 1159.099 C 452.099 1158.499, 453.418 1154.715, 456.281 1148.825 C 460.879 1139.363, 462.942 1133.904, 465.661 1124 C 470.091 1107.862, 469.960 1114.885, 469.980 893.279 L 470 683.057 467.638 677.779 C 463.348 668.190, 455.359 662.255, 443.921 660.158 C 432.092 657.990, 419.385 664.051, 413.249 674.787 C 408.851 682.483, 409.030 673.269, 409.015 892.384 C 409.004 1037.172, 408.676 1100.503, 407.921 1103.384 C 405.270 1113.495, 404.410 1115.883, 401.218 1122 C 392.965 1137.817, 381.806 1147.613, 363.500 1155.112 C 353.937 1159.029, 331.132 1160.384, 321.905 1157.584 C 304.381 1152.265, 290.894 1142.374, 281.561 1128 C 276.335 1119.950, 273.496 1112.842, 271.393 1102.545 C 269.907 1095.265, 269.811 1064.452, 270.265 739.045 C 270.766 379.513, 270.800 376.237, 274.112 369.764 C 274.600 368.809, 275 367.471, 275 366.791 C 275 363.617, 282.919 350.286, 288.281 344.435 C 294.635 337.500, 303.944 330.448, 310.500 327.601 C 317.728 324.463, 318.452 324.198, 323.500 322.844 C 330.088 321.076, 351.103 321.094, 357.005 322.873 C 377.012 328.904, 393.094 341.736, 401.190 358.129 C 409.485 374.924, 409.108 368.805, 409.316 490 L 409.500 597.500 411.953 602.500 C 415.307 609.339, 420.339 614.529, 426.570 617.578 L 431.801 620.137 479.754 620.039 C 518.480 619.960, 527.918 620.196, 528.808 621.268 C 529.556 622.170, 530.004 634.928, 530.205 661.048 L 530.500 699.500 533 703.907 C 542.168 720.069, 561.462 724.964, 576.833 715.029 C 583.105 710.976, 587.270 705.345, 589.266 698.221 C 589.847 696.149, 590.573 678.108, 590.905 657.500 L 591.500 620.500 739.447 620.247 C 841.896 620.071, 887.717 620.317, 888.447 621.045 C 889.130 621.727, 889.676 635.681, 890 660.798 C 890.490 698.697, 890.547 699.589, 892.781 703.771 C 895.531 708.920, 899.945 713.287, 906 716.851 C 910.015 719.215, 911.524 719.500, 920 719.500 C 928.942 719.500, 929.838 719.305, 935.254 716.174 C 941.164 712.758, 945.422 707.713, 948.392 700.605 C 949.772 697.301, 950 691.464, 950 659.413 C 950 624.458, 950.115 622.009, 951.802 621.106 C 952.862 620.539, 973.161 620.009, 1001.052 619.821 C 1048.081 619.503, 1048.537 619.480, 1052.722 617.244 C 1059.344 613.705, 1063.685 609.341, 1066.710 603.182 L 1069.500 597.500 1069.823 491.500 C 1070.161 380.752, 1069.956 373.855, 1065.848 358 C 1061.401 340.835, 1051.983 321.378, 1042.793 310.367 C 1037.630 304.180, 1032.249 298.327, 1028 294.276 C 1022.347 288.886, 1003.436 276.246, 995.500 272.553 C 988.898 269.481, 971.879 263.978, 962.500 261.882 C 957.560 260.778, 901.896 260.520, 647.500 260.423 C 477.550 260.358, 334.225 260.623, 329 261.011 M 451.746 321.233 C 451.509 321.930, 452.277 324.075, 453.454 326 C 459.247 335.477, 464.759 350.888, 468.242 367.350 C 468.958 370.733, 469.532 404.578, 469.916 466 L 470.500 559.500 500.186 559.765 L 529.873 560.030 530.186 521.265 L 530.500 482.500 533.466 476.640 C 538.866 465.971, 547.359 461, 560.184 461 C 572.917 461, 581.212 465.990, 587.244 477.278 C 589.447 481.400, 589.512 482.420, 590 520.500 L 590.500 559.500 740 559.500 L 889.500 559.500 890 521 L 890.500 482.500 893.367 476.751 C 898.748 465.959, 907.245 460.923, 920.119 460.895 C 932.965 460.866, 942.036 466.531, 947.349 477.897 C 949.402 482.291, 949.523 484.250, 950 521 L 950.500 559.500 980.250 559.765 L 1010 560.030 1010 471.265 C 1010 370.353, 1010.311 374.959, 1002.381 358.500 C 994.528 342.201, 981.522 330.911, 961.885 323.345 L 954.500 320.500 703.339 320.233 C 501.299 320.018, 452.094 320.213, 451.746 321.233 M 700.500 702.663 C 691.373 704.097, 675.290 708.274, 667.247 711.301 C 626.955 726.465, 594.412 760.790, 581.188 802.073 C 575.752 819.043, 574.568 828.062, 574.568 852.500 C 574.568 869.168, 574.987 876.720, 576.299 883.660 C 583.207 920.206, 600.022 954.570, 625.832 984.887 C 633.393 993.768, 647.259 1006.908, 654.743 1012.282 L 659 1015.339 659.010 1041.920 C 659.019 1067.660, 659.093 1068.658, 661.353 1073.500 C 664.424 1080.081, 670.540 1085.489, 677.122 1087.444 C 680.005 1088.300, 682.854 1089, 683.454 1089 C 684.053 1089, 688.349 1092.825, 693 1097.500 L 701.456 1106 725.357 1106 L 749.258 1106 757.879 1097.626 C 765.324 1090.394, 767.214 1089.085, 771.732 1088.031 C 777.498 1086.685, 783.645 1082.717, 786.750 1078.339 C 791.403 1071.777, 792 1067.492, 792 1040.647 L 792 1015.363 799.853 1009.178 C 836.805 980.071, 867.472 927.843, 874.526 882 C 876.764 867.461, 876.507 835.138, 874.041 820.849 C 865.230 769.797, 829.620 727.865, 779.985 710.094 C 762.359 703.784, 755.878 702.827, 728.500 702.495 C 714.750 702.329, 702.150 702.404, 700.500 702.663 M 720.500 733.716 C 663.946 738.626, 616.565 782.731, 607.393 839 C 605.613 849.919, 605.646 855.442, 607.557 866.368 C 612.105 892.368, 628.197 926.754, 647.864 952.500 C 654.981 961.818, 670.689 977.606, 679.312 984.109 L 687.123 990 725.412 990 L 763.702 990 770.601 984.843 C 795.823 965.990, 821.462 930.400, 834.964 895.500 C 847.081 864.178, 847.406 841.137, 836.128 812.849 C 827.923 792.269, 812.349 771.966, 794.412 758.466 C 784.695 751.153, 768.514 742.813, 757 739.185 C 744.991 735.400, 728.888 732.987, 720.500 733.716 M 690.393 1022.417 C 690.094 1023.196, 689.996 1030.382, 690.175 1038.384 C 690.539 1054.687, 690.856 1055.483, 697.609 1057.050 C 702.714 1058.234, 748.351 1058.219, 753.473 1057.031 C 759.679 1055.592, 760 1054.597, 760 1036.809 L 760 1021 725.469 1021 C 696.596 1021, 690.848 1021.232, 690.393 1022.417" stroke="none" fill="black" fill-rule="evenodd"/>
</svg>